<svg xmlns="http://www.w3.org/2000/svg" viewBox="0 0 1024 1024" width="1024" height="1024">
  <!--
    Obsign app icon — "the sealed credential": the app's own SealEmblem brand moment
    (gold wax seal holding the shield-check, src/lib/components/ui/SealEmblem.svelte)
    promoted to the home screen. Design rationale: DESIGN.md §6 (Brand Mark & App Icon).

    Source of truth for app-icon.png (the 1024x1024 render `cargo tauri icon` consumes —
    regenerated into the iOS asset catalog by ios-postinit Patch G).

    Drawn full-bleed on the square: iOS applies the squircle mask and (on iOS 26) the
    Liquid Glass material itself — no baked-in corner radius, no gloss. The two top-level
    groups (`layer-background` / `layer-glyph`) are Icon Composer seams if this is ever
    rebuilt as a layered .icon file.

    The seal outline is a deterministic gentle undulation (sin composition around
    r=298: 0.017·sin(9t+0.8) + 0.010·sin(4t+2.3) + 0.005·sin(13t+4.6)) — a pressed wax
    edge, calm on purpose: unmistakably a seal, never a coin (the Authenticity-Not-
    Currency rule) and never a splat. Colors are the Obsign tokens
    (apps/identity-wallet/src/lib/styles/tokens.css), OKLCH → sRGB:
      page      white → sunk parchment            #ffffff / #f2f0ec
      wax       oklch(0.54/0.47/0.37 ~0.1 ~62)    #9b5f0f / #844b03 / #613201
      emblem    on-color oklch(0.99 0.005 80)     #fefbf8
      ring      pale-seal highlight, 32% alpha    #fff9d6
    Matte and dry per the brief — the gradients are shallow, never metallic glint.
  -->
  <title>Obsign</title>
  <defs>
    <linearGradient id="page" x1="0" y1="0" x2="0" y2="1">
      <stop offset="0" stop-color="#ffffff"/>
      <stop offset="1" stop-color="#f2f0ec"/>
    </linearGradient>
    <linearGradient id="wax" x1="0" y1="0" x2="0" y2="1">
      <stop offset="0" stop-color="#9b5f0f"/>
      <stop offset="0.55" stop-color="#844b03"/>
      <stop offset="1" stop-color="#613201"/>
    </linearGradient>
    <linearGradient id="waxshade" x1="0" y1="0" x2="0" y2="1">
      <stop offset="0" stop-color="#ffffff" stop-opacity="0.08"/>
      <stop offset="0.35" stop-color="#ffffff" stop-opacity="0"/>
      <stop offset="0.62" stop-color="#260f00" stop-opacity="0"/>
      <stop offset="1" stop-color="#260f00" stop-opacity="0.22"/>
    </linearGradient>
    <clipPath id="sealclip"><path d="M 814.4 512.0 L 814.9 522.6 L 814.8 533.2 L 814.1 543.7 L 812.6 554.2 L 810.2 564.6 L 806.9 574.7 L 802.9 584.5 L 798.2 594.1 L 793.0 603.3 L 787.5 612.3 L 782.1 621.1 L 776.8 629.9 L 772.0 638.8 L 767.5 647.8 L 763.4 657.1 L 759.5 666.7 L 755.7 676.4 L 751.6 686.1 L 747.1 695.7 L 742.0 705.0 L 736.0 713.7 L 729.2 721.8 L 721.7 729.1 L 713.4 735.7 L 704.7 741.6 L 695.6 747.0 L 686.4 752.1 L 677.2 756.9 L 668.1 761.8 L 659.0 766.7 L 650.1 771.8 L 641.2 776.9 L 632.3 782.2 L 623.2 787.3 L 614.0 792.3 L 604.6 797.0 L 594.9 801.2 L 585.1 805.0 L 575.0 808.3 L 564.7 811.0 L 554.3 813.1 L 543.8 814.7 L 533.2 815.7 L 522.6 816.0 L 512.0 815.6 L 501.4 814.5 L 491.0 812.6 L 480.7 810.1 L 470.5 807.0 L 460.6 803.5 L 450.8 799.8 L 441.2 796.0 L 431.6 792.4 L 422.0 789.0 L 412.3 785.9 L 402.5 783.1 L 392.5 780.5 L 382.4 777.8 L 372.3 774.8 L 362.3 771.3 L 352.6 767.0 L 343.4 761.9 L 334.8 755.9 L 326.8 749.0 L 319.5 741.4 L 312.8 733.2 L 306.6 724.7 L 300.6 716.2 L 294.7 707.7 L 288.7 699.4 L 282.5 691.3 L 276.0 683.5 L 269.2 675.7 L 262.3 668.0 L 255.4 660.1 L 248.7 652.0 L 242.3 643.6 L 236.4 634.7 L 231.1 625.5 L 226.4 615.9 L 222.5 606.1 L 219.3 595.9 L 216.6 585.6 L 214.6 575.2 L 213.2 564.7 L 212.3 554.1 L 212.0 543.5 L 212.1 533.0 L 212.8 522.4 L 213.9 512.0 L 215.4 501.6 L 217.1 491.4 L 218.9 481.2 L 220.7 471.1 L 222.4 460.9 L 223.9 450.8 L 225.4 440.5 L 226.8 430.2 L 228.4 419.9 L 230.4 409.5 L 233.0 399.3 L 236.4 389.3 L 240.7 379.7 L 246.0 370.6 L 252.1 362.0 L 259.1 353.9 L 266.5 346.4 L 274.3 339.3 L 282.0 332.3 L 289.6 325.4 L 297.0 318.4 L 303.9 311.0 L 310.5 303.4 L 317.0 295.4 L 323.4 287.2 L 330.0 279.0 L 336.8 270.9 L 344.2 263.2 L 352.0 256.0 L 360.4 249.5 L 369.4 243.7 L 378.7 238.8 L 388.5 234.5 L 398.4 230.9 L 408.6 227.9 L 418.8 225.2 L 429.1 223.0 L 439.5 221.1 L 449.8 219.5 L 460.2 218.2 L 470.6 217.1 L 480.9 216.3 L 491.3 215.8 L 501.6 215.4 L 512.0 215.1 L 522.4 215.0 L 532.8 214.9 L 543.2 215.0 L 553.7 215.2 L 564.2 215.8 L 574.7 216.8 L 585.2 218.5 L 595.4 221.0 L 605.4 224.4 L 615.1 228.8 L 624.3 234.0 L 633.1 240.0 L 641.5 246.5 L 649.6 253.3 L 657.5 260.0 L 665.4 266.6 L 673.4 272.8 L 681.6 278.5 L 690.2 283.9 L 699.1 289.1 L 708.2 294.1 L 717.3 299.4 L 726.3 305.0 L 735.0 311.2 L 743.1 318.1 L 750.5 325.7 L 757.1 333.9 L 763.0 342.7 L 768.1 352.0 L 772.6 361.5 L 776.7 371.3 L 780.4 381.1 L 784.0 390.9 L 787.5 400.7 L 790.9 410.5 L 794.2 420.3 L 797.5 430.1 L 800.5 440.1 L 803.4 450.1 L 806.0 460.2 L 808.3 470.4 L 810.3 480.6 L 812.0 491.0 L 813.4 501.5 Z"/></clipPath>
    <filter id="lift" x="-30%" y="-30%" width="160%" height="160%">
      <feDropShadow dx="0" dy="12" stdDeviation="20" flood-color="#211c17" flood-opacity="0.20"/>
    </filter>
  </defs>
  <g id="layer-background">
    <rect width="1024" height="1024" fill="url(#page)"/>
  </g>
  <g id="layer-glyph">
    <g filter="url(#lift)">
      <path d="M 814.4 512.0 L 814.9 522.6 L 814.8 533.2 L 814.1 543.7 L 812.6 554.2 L 810.2 564.6 L 806.9 574.7 L 802.9 584.5 L 798.2 594.1 L 793.0 603.3 L 787.5 612.3 L 782.1 621.1 L 776.8 629.9 L 772.0 638.8 L 767.5 647.8 L 763.4 657.1 L 759.5 666.7 L 755.7 676.4 L 751.6 686.1 L 747.1 695.7 L 742.0 705.0 L 736.0 713.7 L 729.2 721.8 L 721.7 729.1 L 713.4 735.7 L 704.7 741.6 L 695.6 747.0 L 686.4 752.1 L 677.2 756.9 L 668.1 761.8 L 659.0 766.7 L 650.1 771.8 L 641.2 776.9 L 632.3 782.2 L 623.2 787.3 L 614.0 792.3 L 604.6 797.0 L 594.9 801.2 L 585.1 805.0 L 575.0 808.3 L 564.7 811.0 L 554.3 813.1 L 543.8 814.7 L 533.2 815.7 L 522.6 816.0 L 512.0 815.6 L 501.4 814.5 L 491.0 812.6 L 480.7 810.1 L 470.5 807.0 L 460.6 803.5 L 450.8 799.8 L 441.2 796.0 L 431.6 792.4 L 422.0 789.0 L 412.3 785.9 L 402.5 783.1 L 392.5 780.5 L 382.4 777.8 L 372.3 774.8 L 362.3 771.3 L 352.6 767.0 L 343.4 761.9 L 334.8 755.9 L 326.8 749.0 L 319.5 741.4 L 312.8 733.2 L 306.6 724.7 L 300.6 716.2 L 294.7 707.7 L 288.7 699.4 L 282.5 691.3 L 276.0 683.5 L 269.2 675.7 L 262.3 668.0 L 255.4 660.1 L 248.7 652.0 L 242.3 643.6 L 236.4 634.7 L 231.1 625.5 L 226.4 615.9 L 222.5 606.1 L 219.3 595.9 L 216.6 585.6 L 214.6 575.2 L 213.2 564.7 L 212.3 554.1 L 212.0 543.5 L 212.1 533.0 L 212.8 522.4 L 213.9 512.0 L 215.4 501.6 L 217.1 491.4 L 218.9 481.2 L 220.7 471.1 L 222.4 460.9 L 223.9 450.8 L 225.4 440.5 L 226.8 430.2 L 228.4 419.9 L 230.4 409.5 L 233.0 399.3 L 236.4 389.3 L 240.7 379.7 L 246.0 370.6 L 252.1 362.0 L 259.1 353.9 L 266.5 346.4 L 274.3 339.3 L 282.0 332.3 L 289.6 325.4 L 297.0 318.4 L 303.9 311.0 L 310.5 303.4 L 317.0 295.4 L 323.4 287.2 L 330.0 279.0 L 336.8 270.9 L 344.2 263.2 L 352.0 256.0 L 360.4 249.5 L 369.4 243.7 L 378.7 238.8 L 388.5 234.5 L 398.4 230.9 L 408.6 227.9 L 418.8 225.2 L 429.1 223.0 L 439.5 221.1 L 449.8 219.5 L 460.2 218.2 L 470.6 217.1 L 480.9 216.3 L 491.3 215.8 L 501.6 215.4 L 512.0 215.1 L 522.4 215.0 L 532.8 214.9 L 543.2 215.0 L 553.7 215.2 L 564.2 215.8 L 574.7 216.8 L 585.2 218.5 L 595.4 221.0 L 605.4 224.4 L 615.1 228.8 L 624.3 234.0 L 633.1 240.0 L 641.5 246.5 L 649.6 253.3 L 657.5 260.0 L 665.4 266.6 L 673.4 272.8 L 681.6 278.5 L 690.2 283.9 L 699.1 289.1 L 708.2 294.1 L 717.3 299.4 L 726.3 305.0 L 735.0 311.2 L 743.1 318.1 L 750.5 325.7 L 757.1 333.9 L 763.0 342.7 L 768.1 352.0 L 772.6 361.5 L 776.7 371.3 L 780.4 381.1 L 784.0 390.9 L 787.5 400.7 L 790.9 410.5 L 794.2 420.3 L 797.5 430.1 L 800.5 440.1 L 803.4 450.1 L 806.0 460.2 L 808.3 470.4 L 810.3 480.6 L 812.0 491.0 L 813.4 501.5 Z" fill="url(#wax)"/>
    </g>
    <g clip-path="url(#sealclip)">
      <rect width="1024" height="1024" fill="url(#waxshade)"/>
    </g>
    <circle cx="512" cy="512" r="230" fill="none" stroke="#fff9d6" stroke-opacity="0.32" stroke-width="13"/>
    <g transform="translate(344 344) scale(14)" fill="none" stroke="#fefbf8" stroke-width="2" stroke-linecap="round" stroke-linejoin="round">
      <path d="M12 22s8-4 8-10V5l-8-3-8 3v7c0 6 8 10 8 10z"/>
      <path d="m9 11.5 2 2 4-4"/>
    </g>
  </g>
</svg>
